<svg version="1.1" xmlns="http://www.w3.org/2000/svg" viewBox="0 0 470 230">
    <style type="text/css">
        .l,line,polyline{fill:none;stroke:#000;}
        polyline{fill:none;stroke:#000;stroke-dasharray:6,3;}
        text{font-family:-apple-system,BlinkMacSystemFont,Segoe UI,Helvetica,Arial,sans-serif,Apple Color Emoji,Segoe UI Emoji;font-size:10px}
        .m{text-anchor:middle}
        .r{text-anchor:end}
        .s{opacity:.5;font-size:6px}
    </style>
    <rect width="100%" height="100%" fill="#fff"/>
    <rect class="l" x="200" y="20" width="250" height="190"/>
    <rect class="l" x="210" y="40" width="50" height="160"/>
    <rect class="l" x="280" y="40" width="160" height="75"/>
    <rect class="l" x="280" y="125" width="160" height="75"/>
    <g>
        <line x1="161.1" y1="100" x2="208.9" y2="100"/>
        <polygon points="164.4,104.1 165.1,103.4 161.5,100 165.1,96.6 164.4,95.9 160,100"/>
        <polygon points="205.6,104.1 204.9,103.4 208.5,100 204.9,96.6 205.6,95.9 210,100"/>
    </g>
    <g>
        <line x1="161.1" y1="140" x2="208.9" y2="140"/>
        <polygon points="164.4,144.1 165.1,143.4 161.5,140 165.1,136.6 164.4,135.9 160,140"/>
        <polygon points="205.6,144.1 204.9,143.4 208.5,140 204.9,136.6 205.6,135.9 210,140"/>
    </g>
    <g>
        <line x1="261.1" y1="77.5" x2="278.9" y2="77.5"/>
        <polygon points="264.4,81.6 265.1,80.9 261.5,77.5 265.1,74.1 264.4,73.4 260,77.5"/>
        <polygon points="275.6,81.6 274.9,80.9 278.5,77.5 274.9,74.1 275.6,73.4 280,77.5"/>
    </g>
    <g>
        <line x1="261.1" y1="162.5" x2="278.9" y2="162.5"/>
        <polygon points="264.4,166.6 265.1,165.9 261.5,162.5 265.1,159.1 264.4,158.4 260,162.5"/>
        <polygon points="275.6,166.6 274.9,165.9 278.5,162.5 274.9,159.1 275.6,158.4 280,162.5"/>
    </g>
    <polyline points="210,100 220,100 220,77.5 260,77.5"/>
    <polyline points="210,140 220,140 220,162.5 260,162.5"/>
    <text transform="translate(150 92)" class="r s">Request for</text>
    <text transform="translate(150 103)" class="r">example.com</text>
    <text transform="translate(150 132)" class="r s">Request for</text>
    <text transform="translate(150 143)" class="r">another-example.com</text>
    <text transform="translate(232 120) rotate(90)" class="m" opacity=".5">express-manifold</text>
    <text transform="translate(360 80)" class="m">example.com server</text>
    <text transform="translate(360 165)" class="m">another-example.com server</text>
    <text transform="translate(210 33)">server (single ip address)</text>
</svg>
